<?xml version="1.0" encoding="iso-8859-1"?>
<!-- Generator: Adobe Illustrator 19.0.0, SVG Export Plug-In . SVG Version: 6.00 Build 0)  -->
<svg version="1.1" id="Layer_1" xmlns="http://www.w3.org/2000/svg" xmlns:xlink="http://www.w3.org/1999/xlink" x="0px" y="0px"
	 viewBox="0 0 474.085 474.085" style="enable-background:new 0 0 474.085 474.085;" xml:space="preserve">
<circle style="fill:#ACDDDE;" cx="237.042" cy="236.966" r="236.966"/>
<path style="fill:#9ACA42;" d="M237.016,474.085c100.781,0,186.811-62.944,221.071-151.635c-61.87-37.302-142.318-55-230.279-55
	c-80.886,0-155.414,14.982-214.998,46.39C44.712,407.044,133.006,474.085,237.016,474.085z"/>
<g>
	<path style="fill:#84B340;" d="M91.17,212.042c0-40.419,24.4-73.193,73.193-73.193s73.193,32.77,73.193,73.193
		s-26.428,73.189-73.193,73.189S91.17,252.464,91.17,212.042z"/>
	<path style="fill:#84B340;" d="M151.741,156.518c0-43.21,26.084-78.24,78.236-78.24c52.156,0,78.236,35.027,78.236,78.24
		c0,43.21-28.25,78.236-78.236,78.236S151.741,199.728,151.741,156.518z"/>
	<path style="fill:#84B340;" d="M131.551,219.615c0-43.21,32.811-78.24,98.431-78.24c65.615,0,98.431,35.027,98.431,78.24
		c0,43.21-35.543,78.236-98.431,78.236C167.09,297.852,131.551,262.825,131.551,219.615z"/>
	<path style="fill:#84B340;" d="M257.742,208.259c0-34.151,20.613-61.833,61.829-61.833s61.833,27.682,61.833,61.833
		s-22.331,61.833-61.833,61.833S257.742,242.406,257.742,208.259z"/>
</g>
<g>
	<path style="fill:#49341B;" d="M233.346,391.238l4.105-232.513c0-4.703,3.813-8.516,8.516-8.516c4.703,0,8.516,3.817,8.516,8.516
		l4.101,232.513C258.584,398.206,233.346,398.206,233.346,391.238z"/>
	<path style="fill:#49341B;" d="M246.79,301.837c-1.5,0-3.027-0.352-4.445-1.093c-4.756-2.466-6.6-8.299-4.142-13.048
		c0,0,41.739-33.579,45.784-47.359c4.041-13.785,9.242-52.662,9.242-52.662c1.766-3.398,5.949-4.722,9.336-2.963
		c3.394,1.766,5.021,52.568-5.702,66.446c-10.724,13.882-41.462,45.444-41.462,45.444
		C253.671,299.928,250.288,301.837,246.79,301.837z"/>
	<path style="fill:#49341B;" d="M243.134,309.339c-3.648,0-7.229-1.774-9.396-5.051c0,0-34.046-45.137-45.316-57.874
		c-9.373-10.585-45.178-35.457-41.728-37.739c3.442-2.286,6.316-3.787,12.625-2.522c0,0,27.345,15.147,41.642,30.286
		c13.639,14.432,51.55,55.442,51.55,55.442c3.431,5.179,2.009,12.161-3.18,15.592C247.422,308.736,245.263,309.339,243.134,309.339z
		"/>
</g>
<g>
</g>
<g>
</g>
<g>
</g>
<g>
</g>
<g>
</g>
<g>
</g>
<g>
</g>
<g>
</g>
<g>
</g>
<g>
</g>
<g>
</g>
<g>
</g>
<g>
</g>
<g>
</g>
<g>
</g>
</svg>
